<?xml version="1.0" encoding="UTF-8" standalone="no"?> <!-- Created with Vectornator for iOS (http://vectornator.io/) --><!DOCTYPE svg PUBLIC "-//W3C//DTD SVG 1.1//EN" "http://www.w3.org/Graphics/SVG/1.1/DTD/svg11.dtd">
<svg height="100%" style="fill-rule:nonzero;clip-rule:evenodd;stroke-linecap:round;stroke-linejoin:round;" xmlns:xlink="http://www.w3.org/1999/xlink" xmlns="http://www.w3.org/2000/svg" xml:space="preserve" width="100%" xmlns:vectornator="http://vectornator.io" version="1.1" viewBox="0 0 1024 1024">
<metadata>
<vectornator:setting key="DimensionsVisible" value="1"/>
<vectornator:setting key="PencilOnly" value="0"/>
<vectornator:setting key="SnapToPoints" value="0"/>
<vectornator:setting key="OutlineMode" value="0"/>
<vectornator:setting key="CMYKEnabledKey" value="0"/>
<vectornator:setting key="RulersVisible" value="1"/>
<vectornator:setting key="SnapToEdges" value="0"/>
<vectornator:setting key="GuidesVisible" value="1"/>
<vectornator:setting key="DisplayWhiteBackground" value="0"/>
<vectornator:setting key="doHistoryDisabled" value="0"/>
<vectornator:setting key="SnapToGuides" value="1"/>
<vectornator:setting key="TimeLapseWatermarkDisabled" value="0"/>
<vectornator:setting key="Units" value="Pixels"/>
<vectornator:setting key="DynamicGuides" value="0"/>
<vectornator:setting key="IsolateActiveLayer" value="0"/>
<vectornator:setting key="SnapToGrid" value="0"/>
</metadata>
<defs/>
<g id="レイヤー 1" vectornator:layerName="レイヤー 1">
<path d="M-1.16447e-05+512C-1.16447e-05+229.23+229.23+0+512+0C794.77+0+1024+229.23+1024+512C1024+794.77+794.77+1024+512+1024C229.23+1024-1.16447e-05+794.77-1.16447e-05+512Z" opacity="1" fill="#000000"/>
<path d="M230.156-37.375L165.438+0L294.906+0L230.156-37.375ZM344+28.3438C143.783+97.8908+0+288.101-0+512C-0+545.562+3.33543+578.334+9.5+610.094L230.156+737.469L565.688+543.781L565.688+156.344L344+28.3438ZM-0+512L-0+95.5312L-105.344+156.344L-105.344+543.781L0+604.594L-0+512Z" opacity="1" fill="#d9d9d9"/>
<path d="M106.688-108.688L-228.844+85.0312L-228.844+472.469L-0.1875+604.469L-0.1875+512L-0.1875+0.4375C-0.1875+0.195249+0.00652386+1.98681e-08+0.25-0L294.938-0L106.688-108.688ZM-0.1875+512C-0.1875+545.507+3.13637+578.227+9.28125+609.938L106.688+666.188L442.219+472.469L442.219+85.0312L343.969+28.3125C143.674+97.8167-0.1875+288.045-0.1875+512Z" opacity="1" fill="#d9d9d9"/>
<path d="M512+899.425L176.48+705.713L176.48+318.287L512+124.575L847.52+318.287L847.52+705.713L512+899.425Z" opacity="1" fill="#000000"/>
<path d="M601.725+951.69L266.205+757.978L266.205+370.552L601.725+176.84L937.245+370.553L937.245+757.978L601.725+951.69Z" opacity="1" fill="#6f6f6f"/>
<path d="M688.281+226.406L352.781+420.125L352.781+807.562L679.094+995.938C705.273+986.899+730.565+975.941+754.625+962.969L779.469+948.594C924.136+859.779+1021.18+701.105+1023.81+519.531L1023.81+504.469C1023.37+473.867+1020.24+443.921+1014.66+414.844L688.281+226.406Z" opacity="1" fill="#aeaeae"/>
<path d="M777.969+279.844L442.438+473.562L442.438+860.969L677.281+996.562C878.91+927.797+1024+736.908+1024+512C1024+479.413+1020.82+447.583+1015+416.688L777.969+279.844ZM1024+512L1024+912.656L1113.5+860.969L1113.5+473.562L1024+421.875L1024+512ZM724.812+1024L777.969+1054.69L831.125+1024L724.812+1024Z" opacity="1" fill="#d9d9d9"/>
<path d="M919.656+361.656L584.125+555.375L584.125+942.812L677.25+996.594C878.899+927.839+1024+736.922+1024+512C1024+479.424+1020.82+447.605+1015+416.719L919.656+361.656ZM1024+512L1024+1023.56C1024+1023.8+1023.81+1024+1023.56+1024L724.75+1024L919.656+1136.53L1255.16+942.812L1255.16+555.375L1024+421.906L1024+512Z" opacity="1" fill="#d9d9d9"/>
<path d="M-0.9375+214.719C-1.34026+214.482-1.83947+214.548-2.03125+214.875L-267.688+667.75C-267.879+668.077-267.715+668.545-267.312+668.781L0+825.594L-0+512L-0+215.281L-0.9375+214.719ZM-0+512C-0+785.933+215.131+1009.63+485.656+1023.34C494.383+1023.79+503.163+1024+512+1024C519.872+1024+527.683+1023.76+535.469+1023.41C537.358+1023.32+539.241+1023.23+541.125+1023.12C556.835+1022.24+572.356+1020.64+587.656+1018.38C589.19+1018.15+590.721+1017.93+592.25+1017.69C599.874+1016.49+607.461+1015.16+614.969+1013.62C615.346+1013.55+615.717+1013.45+616.094+1013.38C623.098+1011.93+630.041+1010.29+636.938+1008.56C638.835+1008.09+640.736+1007.62+642.625+1007.12C649.789+1005.24+656.9+1003.25+663.938+1001.06C664.42+1000.91+664.893+1000.74+665.375+1000.59C671.92+998.541+678.383+996.337+684.812+994.031C686.837+993.305+688.863+992.563+690.875+991.812C697.664+989.28+704.414+986.652+711.062+983.844C711.389+983.706+711.705+983.545+712.031+983.406C718.479+980.667+724.848+977.774+731.156+974.781C732.901+973.953+734.641+973.129+736.375+972.281C742.364+969.356+748.301+966.337+754.156+963.188C754.238+963.143+754.324+963.107+754.406+963.062C756.774+961.787+759.092+960.437+761.438+959.125C765.289+956.972+769.117+954.78+772.906+952.531C775.511+950.985+778.113+949.435+780.688+947.844C786.226+944.422+791.699+940.936+797.094+937.312C798.706+936.229+800.275+935.101+801.875+934C805.96+931.189+810.002+928.301+814+925.375C816.521+923.529+819.046+921.672+821.531+919.781C826.224+916.214+830.873+912.599+835.438+908.875C835.512+908.814+835.582+908.748+835.656+908.688C838.1+906.69+840.469+904.635+842.875+902.594C845.873+900.051+848.843+897.485+851.781+894.875C854.152+892.769+856.513+890.649+858.844+888.5C863.437+884.267+867.971+879.959+872.406+875.562C874.377+873.608+876.311+871.611+878.25+869.625C881.044+866.764+883.804+863.863+886.531+860.938C888.959+858.332+891.376+855.718+893.75+853.062C896.088+850.447+898.371+847.788+900.656+845.125C902.07+843.476+903.513+841.854+904.906+840.188C907.22+837.419+909.462+834.599+911.719+831.781C913.908+829.049+916.085+826.309+918.219+823.531C920.326+820.787+922.448+818.037+924.5+815.25C928.026+810.462+931.482+805.601+934.844+800.688C936.691+797.987+938.454+795.237+940.25+792.5C942.208+789.517+944.135+786.525+946.031+783.5C947.98+780.391+949.929+777.278+951.812+774.125C951.882+774.009+951.962+773.898+952.031+773.781L68.8438+255.656C68.7479+255.822+68.6582+255.991+68.5625+256.156C63.2046+265.423+58.1288+274.88+53.3438+284.5C51.2526+288.704+49.2284+292.95+47.25+297.219C46.3048+299.26+45.3877+301.319+44.4688+303.375C41.368+310.304+38.4234+317.319+35.625+324.406C34.7917+326.52+33.9309+328.622+33.125+330.75C31.6598+334.611+30.249+338.501+28.875+342.406C27.7583+345.587+26.7116+348.791+25.6562+352C24.1731+356.499+22.7358+361.009+21.375+365.562C19.9721+370.269+18.6138+374.987+17.3438+379.75C16.5445+382.738+15.7775+385.74+15.0312+388.75C13.7363+393.989+12.5073+399.261+11.375+404.562C11.0063+406.283+10.6013+407.992+10.25+409.719C10.2019+409.956+10.1728+410.2+10.125+410.438C8.77265+417.157+7.58647+423.938+6.5+430.75C6.12364+433.101+5.78165+435.451+5.4375+437.812C4.38597+445.054+3.40131+452.32+2.65625+459.656C1.87786+467.321+1.31148+475.052+0.875+482.812C0.766444+484.735+0.680954+486.666+0.59375+488.594C0.244067+496.359+0+504.149-0+512ZM512+1024L338.188+1024L850.438+1324.5C850.84+1324.74+851.34+1324.67+851.531+1324.34L1117.19+871.469C1117.38+871.142+1117.22+870.674+1116.81+870.438L1024+816L1024+1023.56C1024+1023.8+1023.81+1024+1023.56+1024L512+1024Z" fill-opacity="0.234339" fill="#000000" opacity="1"/>
<path d="M176.612+682.121L232.966+682.121C233.208+682.121+233.405+682.317+233.405+682.559L233.405+777.025C233.405+777.267+233.208+777.464+232.966+777.464L176.612+777.464C176.369+777.464+176.173+777.267+176.173+777.025L176.173+682.559C176.173+682.317+176.369+682.121+176.612+682.121Z" opacity="1" fill="#000000"/>
<path d="M0.4375+1250.64C0.194024+1250.64-1.72997e-08+1250.84-1.72997e-08+1251.08L-1.72997e-08+1762.64C-1.72997e-08+1479.87+229.23+1250.64+512+1250.64L0.4375+1250.64ZM512+1250.64C794.77+1250.64+1024+1479.87+1024+1762.64L1024+1251.08C1024+1250.84+1023.81+1250.64+1023.56+1250.64L512+1250.64ZM1024+1762.64C1024+2045.41+794.77+2274.64+512+2274.64L1023.56+2274.64C1023.81+2274.64+1024+2274.45+1024+2274.21L1024+1762.64ZM512+2274.64C229.23+2274.64-1.72997e-08+2045.41-1.72997e-08+1762.64L-1.72997e-08+2274.21C2.24367e-08+2274.45+0.194024+2274.64+0.4375+2274.64L512+2274.64Z" opacity="1" fill="#8b8b8b"/>
</g>
</svg>
